<svg id="svg" version="1.1" xmlns="http://www.w3.org/2000/svg" xmlns:xlink="http://www.w3.org/1999/xlink" width="400" height="400" viewBox="0, 0, 400,400"><g id="svgg"><path id="path0" d="M105.078 87.542 C 72.574 91.221,51.806 114.640,48.826 150.977 C 47.939 161.791,48.496 242.873,49.500 249.032 C 53.879 275.905,69.877 295.182,92.676 301.056 C 94.872 301.622,95.313 301.872,95.313 302.551 C 95.313 303.000,94.598 309.421,93.725 316.820 C 91.708 333.922,91.976 335.611,97.108 338.122 C 101.208 340.128,102.644 339.503,113.565 330.961 C 117.599 327.806,124.766 322.244,129.492 318.601 C 134.219 314.958,140.047 310.425,142.444 308.528 L 146.802 305.078 217.845 305.078 C 264.985 305.078,290.001 304.940,292.198 304.669 C 325.110 300.601,345.756 280.536,350.663 247.852 C 351.882 239.736,351.728 152.067,350.482 144.254 C 345.257 111.504,326.100 91.694,295.781 87.692 C 290.785 87.033,110.831 86.891,105.078 87.542 M296.875 97.389 C 323.710 102.789,338.260 119.798,341.598 149.670 C 342.307 156.018,342.469 234.256,341.789 241.602 C 338.847 273.345,321.483 291.433,290.245 295.294 C 288.053 295.565,262.910 295.709,215.831 295.720 C 159.743 295.734,144.438 295.841,143.359 296.229 C 142.607 296.499,134.947 302.336,126.336 309.200 C 102.058 328.553,101.563 328.933,101.561 328.198 C 101.560 327.836,102.363 320.880,103.345 312.741 C 105.564 294.347,105.714 294.923,98.128 292.794 C 73.832 285.977,60.967 269.558,58.214 241.853 C 57.543 235.096,57.690 156.510,58.386 149.951 C 61.670 119.008,78.766 100.156,106.502 96.894 C 112.491 96.190,293.250 96.659,296.875 97.389 M134.351 125.811 C 130.348 130.754,127.483 133.813,117.917 143.359 C 111.095 150.168,110.113 151.314,108.664 154.150 C 102.314 166.583,107.293 179.477,119.291 181.670 C 124.719 182.662,131.438 180.005,133.569 176.024 C 134.260 174.732,134.766 174.712,134.766 175.977 C 134.766 178.975,131.047 187.047,128.314 189.982 C 126.467 191.966,126.112 192.961,127.246 192.981 C 134.319 193.105,148.701 192.862,148.949 192.614 C 149.131 192.432,148.473 191.374,147.486 190.263 C 143.877 186.199,139.375 174.609,141.406 174.609 C 141.621 174.609,141.797 174.793,141.797 175.017 C 141.797 175.897,145.407 179.216,147.454 180.219 C 159.257 185.998,171.833 175.986,169.900 162.349 C 168.928 155.483,166.870 152.416,155.852 141.406 C 150.799 136.357,144.757 129.897,142.424 127.051 C 140.091 124.204,138.037 121.875,137.860 121.875 C 137.683 121.875,136.104 123.646,134.351 125.811 M240.459 206.482 C 230.147 209.765,225.084 223.226,231.263 230.931 C 232.976 233.067,232.513 233.703,229.957 232.726 C 215.796 227.314,203.202 247.072,212.951 259.405 C 220.201 268.577,236.586 267.490,239.843 257.620 C 240.463 255.741,241.406 255.808,241.406 257.730 C 241.406 261.705,238.809 267.891,235.401 272.036 C 232.318 275.785,231.745 275.571,245.195 275.689 C 259.366 275.814,259.160 275.884,255.573 272.149 C 252.839 269.301,251.722 267.252,250.046 262.007 C 248.171 256.137,248.676 254.091,250.934 258.412 C 255.598 267.339,268.988 268.640,276.385 260.885 C 287.938 248.774,276.475 228.274,260.547 232.561 C 257.927 233.266,257.818 233.186,259.190 231.559 C 268.452 220.575,254.570 201.990,240.459 206.482 " stroke="none" fill="#050505" fill-rule="evenodd"></path><path id="path1" d="M0.000 200.000 L 0.000 400.000 200.000 400.000 L 400.000 400.000 400.000 200.000 L 400.000 0.000 200.000 0.000 L 0.000 0.000 0.000 200.000 M296.875 87.630 C 327.295 92.755,345.304 111.678,350.652 144.141 C 351.512 149.358,351.961 235.186,351.173 243.750 C 348.196 276.126,329.521 297.507,298.828 303.677 C 290.210 305.410,287.469 305.469,215.196 305.469 L 146.521 305.469 138.788 311.502 C 100.052 341.723,101.829 340.585,96.998 338.246 C 91.771 335.716,91.554 334.198,93.750 315.577 C 94.609 308.290,95.313 302.251,95.313 302.157 C 95.313 302.063,94.043 301.608,92.492 301.146 C 68.567 294.021,53.592 275.866,49.339 248.828 C 48.252 241.918,48.256 151.405,49.343 144.531 C 54.933 109.201,75.992 89.395,110.547 86.968 C 118.860 86.385,293.156 87.004,296.875 87.630 M107.969 96.909 C 80.316 99.379,63.303 116.839,58.711 147.461 C 57.785 153.637,57.626 237.029,58.527 244.141 C 61.936 271.047,74.769 286.299,99.787 293.179 C 102.794 294.006,105.080 296.133,105.074 298.099 C 105.070 299.258,102.365 322.420,101.709 326.905 C 101.371 329.218,98.989 330.952,127.719 307.977 C 135.800 301.515,142.845 296.113,143.374 295.971 C 143.903 295.830,176.027 295.711,214.761 295.708 C 260.604 295.705,286.511 295.562,288.980 295.298 C 320.023 291.987,337.475 274.918,341.486 243.945 C 342.378 237.062,342.203 154.053,341.284 147.461 C 337.002 116.778,319.751 99.432,290.987 96.886 C 285.594 96.409,113.329 96.431,107.969 96.909 M142.040 126.465 C 144.128 128.989,150.244 135.537,155.633 141.016 C 168.970 154.576,171.484 159.357,169.941 168.221 C 167.462 182.451,149.429 187.030,141.705 175.391 L 141.057 174.414 141.036 175.528 C 140.978 178.683,144.677 186.953,147.665 190.347 C 150.328 193.372,150.267 193.390,137.550 193.268 C 125.029 193.147,125.192 193.211,128.403 189.698 C 130.499 187.404,132.186 184.216,133.770 179.556 C 135.214 175.310,135.012 174.275,133.203 176.652 C 124.661 187.877,106.423 180.723,105.918 165.948 C 105.596 156.551,107.355 153.572,121.644 139.312 C 126.624 134.341,132.186 128.386,134.002 126.080 C 135.818 123.773,137.516 121.883,137.774 121.880 C 138.033 121.877,139.952 123.940,142.040 126.465 M234.402 123.285 C 237.638 124.244,239.574 125.564,242.738 128.970 L 245.630 132.083 246.803 130.397 C 257.920 114.423,281.250 124.350,281.250 145.054 C 281.250 152.661,278.765 157.981,271.453 166.030 C 266.967 170.966,246.178 190.788,245.331 190.936 C 244.078 191.155,220.613 168.277,216.365 162.695 C 211.886 156.810,209.815 151.872,209.482 146.288 C 208.568 130.978,221.154 119.360,234.402 123.285 M248.794 206.071 C 258.890 208.451,264.836 220.104,260.680 229.365 C 260.107 230.641,259.272 231.956,258.823 232.288 C 258.058 232.855,258.104 232.871,259.570 232.559 C 268.371 230.686,275.527 233.851,279.123 241.207 C 282.597 248.313,281.553 255.825,276.349 261.165 C 268.945 268.762,254.600 267.105,250.579 258.188 C 249.910 256.705,248.828 256.071,248.828 257.163 C 248.828 260.522,252.810 269.240,255.754 272.327 C 259.145 275.882,259.444 275.781,245.508 275.781 C 231.477 275.781,232.020 276.001,235.466 271.718 C 238.738 267.650,241.406 261.364,241.406 257.723 C 241.406 256.120,240.467 256.388,239.637 258.227 C 235.651 267.068,222.621 268.635,214.597 261.239 C 206.079 253.388,208.408 238.150,218.858 233.357 C 221.918 231.954,227.426 231.566,229.859 232.582 C 232.165 233.546,233.017 232.654,231.286 231.087 C 229.956 229.884,228.793 226.553,228.602 223.404 C 227.941 212.494,238.304 203.598,248.794 206.071 M152.202 222.903 C 169.228 241.717,168.177 240.452,167.665 241.532 C 167.443 242.000,164.406 245.459,160.916 249.219 C 152.804 257.957,143.844 267.761,140.657 271.387 C 139.288 272.944,138.034 274.219,137.870 274.219 C 137.635 274.219,124.537 259.982,109.055 242.898 L 107.368 241.036 114.468 233.116 C 118.373 228.759,125.108 221.210,129.436 216.339 C 133.764 211.468,137.505 207.469,137.749 207.452 C 137.993 207.435,144.497 214.388,152.202 222.903 " stroke="none" fill="#fbfbfb" fill-rule="evenodd"></path><path id="path2" d="M224.882 123.060 C 219.932 124.306,214.149 129.127,211.780 133.984 C 207.517 142.724,208.989 152.695,215.901 161.914 C 220.147 167.577,243.756 191.016,245.214 191.016 C 246.585 191.016,271.784 166.095,275.760 160.807 C 284.577 149.080,282.541 132.958,271.328 125.711 C 262.924 120.279,252.020 122.340,246.983 130.313 C 245.629 132.457,246.010 132.580,242.664 128.922 C 237.848 123.656,231.210 121.468,224.882 123.060 M131.369 214.352 C 127.974 218.163,124.306 222.250,123.220 223.434 C 116.094 231.198,107.813 240.657,107.813 241.032 C 107.813 241.276,108.647 242.399,109.668 243.527 C 111.713 245.787,134.092 270.293,136.423 272.826 L 137.885 274.414 139.939 272.082 C 142.731 268.911,153.515 257.095,160.916 249.097 C 168.716 240.666,168.452 241.116,166.765 239.146 C 162.954 234.693,138.083 207.422,137.834 207.422 C 137.674 207.422,134.765 210.540,131.369 214.352 " stroke="none" fill="#f61b23" fill-rule="evenodd"></path><path id="path3" d="M157.129 87.012 C 180.923 87.067,219.858 87.067,243.652 87.012 C 267.446 86.956,247.979 86.911,200.391 86.911 C 152.803 86.911,133.335 86.956,157.129 87.012 M67.578 104.883 C 66.629 105.850,65.941 106.641,66.048 106.641 C 66.156 106.641,67.020 105.850,67.969 104.883 C 68.918 103.916,69.606 103.125,69.499 103.125 C 69.391 103.125,68.527 103.916,67.578 104.883 M331.836 104.688 C 332.675 105.547,333.450 106.250,333.557 106.250 C 333.664 106.250,333.066 105.547,332.227 104.688 C 331.387 103.828,330.613 103.125,330.506 103.125 C 330.398 103.125,330.997 103.828,331.836 104.688 M151.758 137.500 C 153.466 139.219,154.952 140.625,155.060 140.625 C 155.167 140.625,153.857 139.219,152.148 137.500 C 150.440 135.781,148.954 134.375,148.846 134.375 C 148.739 134.375,150.049 135.781,151.758 137.500 M133.105 193.261 C 135.952 193.327,140.610 193.327,143.457 193.261 C 146.304 193.194,143.975 193.139,138.281 193.139 C 132.588 193.139,130.259 193.194,133.105 193.261 M72.656 278.247 C 72.656 278.314,73.228 278.886,73.926 279.517 L 75.195 280.664 74.048 279.395 C 72.979 278.211,72.656 277.945,72.656 278.247 M181.152 305.371 C 199.897 305.427,230.571 305.427,249.316 305.371 C 268.062 305.315,252.725 305.269,215.234 305.269 C 177.744 305.269,162.407 305.315,181.152 305.371 " stroke="none" fill="#7c7c7c" fill-rule="evenodd"></path><path id="path4" d="M332.983 286.035 L 331.836 287.305 333.105 286.157 C 333.804 285.526,334.375 284.955,334.375 284.888 C 334.375 284.586,334.053 284.852,332.983 286.035 M283.891 305.354 C 284.377 305.448,285.080 305.444,285.454 305.347 C 285.827 305.249,285.430 305.172,284.570 305.177 C 283.711 305.181,283.405 305.261,283.891 305.354 " stroke="none" fill="#99999a" fill-rule="evenodd"></path></g></svg>